<mxfile host="app.diagrams.net" agent="Mozilla/5.0 (Windows NT 10.0; Win64; x64) AppleWebKit/537.36 (KHTML, like Gecko) Chrome/131.0.0.0 Safari/537.36" version="24.9.1">
  <diagram name="第 1 页" id="_Z2FCsOnR3r-TF4Zi8PW">
    <mxGraphModel dx="2922" dy="1406" grid="1" gridSize="10" guides="1" tooltips="1" connect="1" arrows="1" fold="1" page="1" pageScale="1" pageWidth="827" pageHeight="1169" math="0" shadow="0">
      <root>
        <mxCell id="0" />
        <mxCell id="1" parent="0" />
        <mxCell id="7UqYAymLV8VOy74LcbG4-1" value="核心1" style="rounded=1;whiteSpace=wrap;html=1;" parent="1" vertex="1">
          <mxGeometry x="700" y="720" width="120" height="60" as="geometry" />
        </mxCell>
        <mxCell id="7UqYAymLV8VOy74LcbG4-2" value="核心2" style="rounded=1;whiteSpace=wrap;html=1;" parent="1" vertex="1">
          <mxGeometry x="700" y="900" width="120" height="60" as="geometry" />
        </mxCell>
        <mxCell id="7UqYAymLV8VOy74LcbG4-3" value="负载A" style="rounded=1;whiteSpace=wrap;html=1;" parent="1" vertex="1">
          <mxGeometry x="940" y="720" width="120" height="60" as="geometry" />
        </mxCell>
        <mxCell id="7UqYAymLV8VOy74LcbG4-4" value="负载B" style="rounded=1;whiteSpace=wrap;html=1;" parent="1" vertex="1">
          <mxGeometry x="940" y="900" width="120" height="60" as="geometry" />
        </mxCell>
        <mxCell id="7UqYAymLV8VOy74LcbG4-5" style="edgeStyle=orthogonalEdgeStyle;rounded=0;orthogonalLoop=1;jettySize=auto;html=1;exitX=1;exitY=0.5;exitDx=0;exitDy=0;exitPerimeter=0;entryX=0;entryY=0.5;entryDx=0;entryDy=0;" parent="1" source="7UqYAymLV8VOy74LcbG4-6" target="7UqYAymLV8VOy74LcbG4-9" edge="1">
          <mxGeometry relative="1" as="geometry">
            <mxPoint x="270" y="750" as="targetPoint" />
          </mxGeometry>
        </mxCell>
        <mxCell id="7UqYAymLV8VOy74LcbG4-6" value="" style="fontColor=#0066CC;verticalAlign=top;verticalLabelPosition=bottom;labelPosition=center;align=center;html=1;outlineConnect=0;fillColor=#CCCCCC;strokeColor=#6881B3;gradientColor=none;gradientDirection=north;strokeWidth=2;shape=mxgraph.networks.pc;" parent="1" vertex="1">
          <mxGeometry x="40" y="715" width="100" height="70" as="geometry" />
        </mxCell>
        <mxCell id="7UqYAymLV8VOy74LcbG4-7" style="edgeStyle=orthogonalEdgeStyle;rounded=0;orthogonalLoop=1;jettySize=auto;html=1;exitX=1;exitY=0.25;exitDx=0;exitDy=0;entryX=0;entryY=0.25;entryDx=0;entryDy=0;" parent="1" source="7UqYAymLV8VOy74LcbG4-9" target="7UqYAymLV8VOy74LcbG4-1" edge="1">
          <mxGeometry relative="1" as="geometry" />
        </mxCell>
        <mxCell id="7UqYAymLV8VOy74LcbG4-8" style="edgeStyle=orthogonalEdgeStyle;rounded=0;orthogonalLoop=1;jettySize=auto;html=1;exitX=1;exitY=0.75;exitDx=0;exitDy=0;entryX=0;entryY=0.75;entryDx=0;entryDy=0;" parent="1" source="7UqYAymLV8VOy74LcbG4-9" target="7UqYAymLV8VOy74LcbG4-1" edge="1">
          <mxGeometry relative="1" as="geometry" />
        </mxCell>
        <mxCell id="7UqYAymLV8VOy74LcbG4-9" value="上联1" style="rounded=1;whiteSpace=wrap;html=1;" parent="1" vertex="1">
          <mxGeometry x="280" y="720" width="120" height="60" as="geometry" />
        </mxCell>
        <mxCell id="7UqYAymLV8VOy74LcbG4-10" style="edgeStyle=orthogonalEdgeStyle;rounded=0;orthogonalLoop=1;jettySize=auto;html=1;exitX=1;exitY=0.25;exitDx=0;exitDy=0;entryX=0;entryY=0.25;entryDx=0;entryDy=0;" parent="1" source="7UqYAymLV8VOy74LcbG4-12" target="7UqYAymLV8VOy74LcbG4-2" edge="1">
          <mxGeometry relative="1" as="geometry" />
        </mxCell>
        <mxCell id="7UqYAymLV8VOy74LcbG4-11" style="edgeStyle=orthogonalEdgeStyle;rounded=0;orthogonalLoop=1;jettySize=auto;html=1;exitX=1;exitY=0.75;exitDx=0;exitDy=0;entryX=0;entryY=0.75;entryDx=0;entryDy=0;" parent="1" source="7UqYAymLV8VOy74LcbG4-12" target="7UqYAymLV8VOy74LcbG4-2" edge="1">
          <mxGeometry relative="1" as="geometry" />
        </mxCell>
        <mxCell id="7UqYAymLV8VOy74LcbG4-12" value="上联2" style="rounded=1;whiteSpace=wrap;html=1;" parent="1" vertex="1">
          <mxGeometry x="280" y="900" width="120" height="60" as="geometry" />
        </mxCell>
        <mxCell id="7UqYAymLV8VOy74LcbG4-13" value="" style="shape=flexArrow;endArrow=classic;startArrow=classic;html=1;rounded=0;entryX=0.5;entryY=1;entryDx=0;entryDy=0;exitX=0.5;exitY=0;exitDx=0;exitDy=0;" parent="1" source="7UqYAymLV8VOy74LcbG4-2" target="7UqYAymLV8VOy74LcbG4-1" edge="1">
          <mxGeometry width="100" height="100" relative="1" as="geometry">
            <mxPoint x="1020" y="760" as="sourcePoint" />
            <mxPoint x="1120" y="660" as="targetPoint" />
          </mxGeometry>
        </mxCell>
        <mxCell id="7UqYAymLV8VOy74LcbG4-14" value="WAF主" style="rounded=1;whiteSpace=wrap;html=1;strokeColor=default;fillColor=#78FAFF;" parent="1" vertex="1">
          <mxGeometry x="480" y="720" width="120" height="60" as="geometry" />
        </mxCell>
        <mxCell id="7UqYAymLV8VOy74LcbG4-15" value="WAF备" style="rounded=1;whiteSpace=wrap;html=1;strokeColor=default;fillColor=#78FAFF;" parent="1" vertex="1">
          <mxGeometry x="480" y="900" width="120" height="60" as="geometry" />
        </mxCell>
        <mxCell id="7UqYAymLV8VOy74LcbG4-16" value="透明代理" style="text;html=1;align=center;verticalAlign=middle;resizable=0;points=[];autosize=1;strokeColor=none;fillColor=none;" parent="1" vertex="1">
          <mxGeometry x="70" y="915" width="70" height="30" as="geometry" />
        </mxCell>
        <mxCell id="7UqYAymLV8VOy74LcbG4-17" value="核心1" style="rounded=1;whiteSpace=wrap;html=1;" parent="1" vertex="1">
          <mxGeometry x="700" y="1200" width="120" height="60" as="geometry" />
        </mxCell>
        <mxCell id="7UqYAymLV8VOy74LcbG4-18" value="核心2" style="rounded=1;whiteSpace=wrap;html=1;" parent="1" vertex="1">
          <mxGeometry x="700" y="1380" width="120" height="60" as="geometry" />
        </mxCell>
        <mxCell id="7UqYAymLV8VOy74LcbG4-19" value="负载A" style="rounded=1;whiteSpace=wrap;html=1;" parent="1" vertex="1">
          <mxGeometry x="940" y="1200" width="120" height="60" as="geometry" />
        </mxCell>
        <mxCell id="7UqYAymLV8VOy74LcbG4-20" value="负载B" style="rounded=1;whiteSpace=wrap;html=1;" parent="1" vertex="1">
          <mxGeometry x="940" y="1380" width="120" height="60" as="geometry" />
        </mxCell>
        <mxCell id="7UqYAymLV8VOy74LcbG4-21" style="edgeStyle=orthogonalEdgeStyle;rounded=0;orthogonalLoop=1;jettySize=auto;html=1;exitX=1;exitY=0.5;exitDx=0;exitDy=0;exitPerimeter=0;entryX=0;entryY=0.5;entryDx=0;entryDy=0;" parent="1" source="7UqYAymLV8VOy74LcbG4-22" target="7UqYAymLV8VOy74LcbG4-25" edge="1">
          <mxGeometry relative="1" as="geometry">
            <mxPoint x="270" y="1230" as="targetPoint" />
          </mxGeometry>
        </mxCell>
        <mxCell id="7UqYAymLV8VOy74LcbG4-22" value="" style="fontColor=#0066CC;verticalAlign=top;verticalLabelPosition=bottom;labelPosition=center;align=center;html=1;outlineConnect=0;fillColor=#CCCCCC;strokeColor=#6881B3;gradientColor=none;gradientDirection=north;strokeWidth=2;shape=mxgraph.networks.pc;" parent="1" vertex="1">
          <mxGeometry x="40" y="1195" width="100" height="70" as="geometry" />
        </mxCell>
        <mxCell id="7UqYAymLV8VOy74LcbG4-23" style="edgeStyle=orthogonalEdgeStyle;rounded=0;orthogonalLoop=1;jettySize=auto;html=1;exitX=1;exitY=0.25;exitDx=0;exitDy=0;entryX=0;entryY=0.25;entryDx=0;entryDy=0;" parent="1" source="7UqYAymLV8VOy74LcbG4-25" target="7UqYAymLV8VOy74LcbG4-17" edge="1">
          <mxGeometry relative="1" as="geometry" />
        </mxCell>
        <mxCell id="7UqYAymLV8VOy74LcbG4-24" style="edgeStyle=orthogonalEdgeStyle;rounded=0;orthogonalLoop=1;jettySize=auto;html=1;exitX=1;exitY=0.75;exitDx=0;exitDy=0;entryX=0;entryY=0.75;entryDx=0;entryDy=0;" parent="1" source="7UqYAymLV8VOy74LcbG4-25" target="7UqYAymLV8VOy74LcbG4-17" edge="1">
          <mxGeometry relative="1" as="geometry" />
        </mxCell>
        <mxCell id="7UqYAymLV8VOy74LcbG4-25" value="上联1" style="rounded=1;whiteSpace=wrap;html=1;" parent="1" vertex="1">
          <mxGeometry x="280" y="1200" width="120" height="60" as="geometry" />
        </mxCell>
        <mxCell id="7UqYAymLV8VOy74LcbG4-26" style="edgeStyle=orthogonalEdgeStyle;rounded=0;orthogonalLoop=1;jettySize=auto;html=1;exitX=1;exitY=0.25;exitDx=0;exitDy=0;entryX=0;entryY=0.25;entryDx=0;entryDy=0;" parent="1" source="7UqYAymLV8VOy74LcbG4-28" target="7UqYAymLV8VOy74LcbG4-18" edge="1">
          <mxGeometry relative="1" as="geometry" />
        </mxCell>
        <mxCell id="7UqYAymLV8VOy74LcbG4-27" style="edgeStyle=orthogonalEdgeStyle;rounded=0;orthogonalLoop=1;jettySize=auto;html=1;exitX=1;exitY=0.75;exitDx=0;exitDy=0;entryX=0;entryY=0.75;entryDx=0;entryDy=0;" parent="1" source="7UqYAymLV8VOy74LcbG4-28" target="7UqYAymLV8VOy74LcbG4-18" edge="1">
          <mxGeometry relative="1" as="geometry" />
        </mxCell>
        <mxCell id="7UqYAymLV8VOy74LcbG4-28" value="上联2" style="rounded=1;whiteSpace=wrap;html=1;" parent="1" vertex="1">
          <mxGeometry x="280" y="1380" width="120" height="60" as="geometry" />
        </mxCell>
        <mxCell id="7UqYAymLV8VOy74LcbG4-29" value="" style="shape=flexArrow;endArrow=classic;startArrow=classic;html=1;rounded=0;entryX=0.5;entryY=1;entryDx=0;entryDy=0;exitX=0.5;exitY=0;exitDx=0;exitDy=0;" parent="1" source="7UqYAymLV8VOy74LcbG4-18" target="7UqYAymLV8VOy74LcbG4-17" edge="1">
          <mxGeometry width="100" height="100" relative="1" as="geometry">
            <mxPoint x="1020" y="1240" as="sourcePoint" />
            <mxPoint x="1120" y="1140" as="targetPoint" />
          </mxGeometry>
        </mxCell>
        <mxCell id="7UqYAymLV8VOy74LcbG4-30" value="WAF主" style="rounded=1;whiteSpace=wrap;html=1;fillColor=#B5FFE9;" parent="1" vertex="1">
          <mxGeometry x="480" y="1200" width="120" height="60" as="geometry" />
        </mxCell>
        <mxCell id="7UqYAymLV8VOy74LcbG4-31" value="WAF备" style="rounded=1;whiteSpace=wrap;html=1;fillColor=#B5FFE9;" parent="1" vertex="1">
          <mxGeometry x="480" y="1380" width="120" height="60" as="geometry" />
        </mxCell>
        <mxCell id="7UqYAymLV8VOy74LcbG4-32" value="" style="shape=flexArrow;endArrow=classic;startArrow=classic;html=1;rounded=0;entryX=0.5;entryY=1;entryDx=0;entryDy=0;exitX=0.5;exitY=0;exitDx=0;exitDy=0;fillColor=#B5FFE9;" parent="1" source="7UqYAymLV8VOy74LcbG4-31" target="7UqYAymLV8VOy74LcbG4-30" edge="1">
          <mxGeometry width="100" height="100" relative="1" as="geometry">
            <mxPoint x="650" y="1420" as="sourcePoint" />
            <mxPoint x="750" y="1320" as="targetPoint" />
          </mxGeometry>
        </mxCell>
        <mxCell id="7UqYAymLV8VOy74LcbG4-33" value="透明桥" style="text;html=1;align=center;verticalAlign=middle;resizable=0;points=[];autosize=1;strokeColor=none;fillColor=none;" parent="1" vertex="1">
          <mxGeometry x="75" y="1395" width="60" height="30" as="geometry" />
        </mxCell>
        <mxCell id="7UqYAymLV8VOy74LcbG4-34" value="核心1" style="rounded=1;whiteSpace=wrap;html=1;" parent="1" vertex="1">
          <mxGeometry x="700" y="180" width="120" height="60" as="geometry" />
        </mxCell>
        <mxCell id="7UqYAymLV8VOy74LcbG4-35" value="核心2" style="rounded=1;whiteSpace=wrap;html=1;" parent="1" vertex="1">
          <mxGeometry x="700" y="360" width="120" height="60" as="geometry" />
        </mxCell>
        <mxCell id="7UqYAymLV8VOy74LcbG4-36" value="负载A" style="rounded=1;whiteSpace=wrap;html=1;" parent="1" vertex="1">
          <mxGeometry x="940" y="180" width="120" height="60" as="geometry" />
        </mxCell>
        <mxCell id="7UqYAymLV8VOy74LcbG4-37" value="负载B" style="rounded=1;whiteSpace=wrap;html=1;" parent="1" vertex="1">
          <mxGeometry x="940" y="360" width="120" height="60" as="geometry" />
        </mxCell>
        <mxCell id="7UqYAymLV8VOy74LcbG4-38" style="edgeStyle=orthogonalEdgeStyle;rounded=0;orthogonalLoop=1;jettySize=auto;html=1;exitX=1;exitY=0.5;exitDx=0;exitDy=0;exitPerimeter=0;entryX=0;entryY=0.5;entryDx=0;entryDy=0;" parent="1" source="7UqYAymLV8VOy74LcbG4-39" target="7UqYAymLV8VOy74LcbG4-40" edge="1">
          <mxGeometry relative="1" as="geometry">
            <mxPoint x="270" y="210" as="targetPoint" />
          </mxGeometry>
        </mxCell>
        <mxCell id="7UqYAymLV8VOy74LcbG4-39" value="" style="fontColor=#0066CC;verticalAlign=top;verticalLabelPosition=bottom;labelPosition=center;align=center;html=1;outlineConnect=0;fillColor=#CCCCCC;strokeColor=#6881B3;gradientColor=none;gradientDirection=north;strokeWidth=2;shape=mxgraph.networks.pc;" parent="1" vertex="1">
          <mxGeometry x="40" y="175" width="100" height="70" as="geometry" />
        </mxCell>
        <mxCell id="7UqYAymLV8VOy74LcbG4-40" value="上联1" style="rounded=1;whiteSpace=wrap;html=1;" parent="1" vertex="1">
          <mxGeometry x="280" y="180" width="120" height="60" as="geometry" />
        </mxCell>
        <mxCell id="7UqYAymLV8VOy74LcbG4-41" value="上联2" style="rounded=1;whiteSpace=wrap;html=1;" parent="1" vertex="1">
          <mxGeometry x="280" y="360" width="120" height="60" as="geometry" />
        </mxCell>
        <mxCell id="7UqYAymLV8VOy74LcbG4-42" value="" style="shape=flexArrow;endArrow=classic;startArrow=classic;html=1;rounded=0;entryX=0.5;entryY=1;entryDx=0;entryDy=0;exitX=0.5;exitY=0;exitDx=0;exitDy=0;" parent="1" source="7UqYAymLV8VOy74LcbG4-35" target="7UqYAymLV8VOy74LcbG4-34" edge="1">
          <mxGeometry width="100" height="100" relative="1" as="geometry">
            <mxPoint x="1020" y="220" as="sourcePoint" />
            <mxPoint x="1120" y="120" as="targetPoint" />
          </mxGeometry>
        </mxCell>
        <mxCell id="7UqYAymLV8VOy74LcbG4-43" value="WAF主" style="rounded=1;whiteSpace=wrap;html=1;strokeColor=default;fillColor=#78FAFF;" parent="1" vertex="1">
          <mxGeometry x="600" y="40" width="120" height="60" as="geometry" />
        </mxCell>
        <mxCell id="7UqYAymLV8VOy74LcbG4-44" value="WAF备" style="rounded=1;whiteSpace=wrap;html=1;strokeColor=default;fillColor=#78FAFF;" parent="1" vertex="1">
          <mxGeometry x="810" y="40" width="120" height="60" as="geometry" />
        </mxCell>
        <mxCell id="7UqYAymLV8VOy74LcbG4-45" value="反向代理" style="text;html=1;align=center;verticalAlign=middle;resizable=0;points=[];autosize=1;strokeColor=none;fillColor=none;" parent="1" vertex="1">
          <mxGeometry x="70" y="375" width="70" height="30" as="geometry" />
        </mxCell>
        <mxCell id="7UqYAymLV8VOy74LcbG4-46" value="" style="image;html=1;image=img/lib/clip_art/computers/Server_Rack_128x128.png" parent="1" vertex="1">
          <mxGeometry x="690" y="510" width="80" height="80" as="geometry" />
        </mxCell>
        <mxCell id="7UqYAymLV8VOy74LcbG4-47" value="" style="image;html=1;image=img/lib/clip_art/computers/Server_Rack_128x128.png" parent="1" vertex="1">
          <mxGeometry x="750" y="510" width="80" height="80" as="geometry" />
        </mxCell>
        <mxCell id="7UqYAymLV8VOy74LcbG4-48" value="" style="shape=link;html=1;rounded=0;entryX=0.5;entryY=0;entryDx=0;entryDy=0;exitX=0.25;exitY=1;exitDx=0;exitDy=0;" parent="1" source="7UqYAymLV8VOy74LcbG4-35" target="7UqYAymLV8VOy74LcbG4-46" edge="1">
          <mxGeometry width="100" relative="1" as="geometry">
            <mxPoint x="590" y="620" as="sourcePoint" />
            <mxPoint x="690" y="620" as="targetPoint" />
          </mxGeometry>
        </mxCell>
        <mxCell id="7UqYAymLV8VOy74LcbG4-49" value="" style="shape=link;html=1;rounded=0;entryX=0.5;entryY=0;entryDx=0;entryDy=0;exitX=0.75;exitY=1;exitDx=0;exitDy=0;" parent="1" source="7UqYAymLV8VOy74LcbG4-35" target="7UqYAymLV8VOy74LcbG4-47" edge="1">
          <mxGeometry width="100" relative="1" as="geometry">
            <mxPoint x="740" y="430" as="sourcePoint" />
            <mxPoint x="740" y="520" as="targetPoint" />
          </mxGeometry>
        </mxCell>
        <mxCell id="7UqYAymLV8VOy74LcbG4-50" value="" style="endArrow=classic;startArrow=classic;html=1;rounded=0;entryX=0;entryY=0.5;entryDx=0;entryDy=0;exitX=1;exitY=0.5;exitDx=0;exitDy=0;strokeColor=#FF1212;" parent="1" source="7UqYAymLV8VOy74LcbG4-43" target="7UqYAymLV8VOy74LcbG4-44" edge="1">
          <mxGeometry width="50" height="50" relative="1" as="geometry">
            <mxPoint x="480" y="550" as="sourcePoint" />
            <mxPoint x="530" y="500" as="targetPoint" />
          </mxGeometry>
        </mxCell>
        <mxCell id="7UqYAymLV8VOy74LcbG4-51" value="" style="image;html=1;image=img/lib/clip_art/computers/Server_Rack_128x128.png" parent="1" vertex="1">
          <mxGeometry x="690" y="1060" width="80" height="80" as="geometry" />
        </mxCell>
        <mxCell id="7UqYAymLV8VOy74LcbG4-52" value="" style="image;html=1;image=img/lib/clip_art/computers/Server_Rack_128x128.png" parent="1" vertex="1">
          <mxGeometry x="750" y="1060" width="80" height="80" as="geometry" />
        </mxCell>
        <mxCell id="7UqYAymLV8VOy74LcbG4-53" value="" style="shape=link;html=1;rounded=0;entryX=0.5;entryY=0;entryDx=0;entryDy=0;exitX=0.25;exitY=1;exitDx=0;exitDy=0;" parent="1" source="7UqYAymLV8VOy74LcbG4-2" target="7UqYAymLV8VOy74LcbG4-51" edge="1">
          <mxGeometry width="100" relative="1" as="geometry">
            <mxPoint x="740" y="960" as="sourcePoint" />
            <mxPoint x="740" y="1050" as="targetPoint" />
          </mxGeometry>
        </mxCell>
        <mxCell id="7UqYAymLV8VOy74LcbG4-54" value="" style="shape=link;html=1;rounded=0;entryX=0.5;entryY=0;entryDx=0;entryDy=0;exitX=0.75;exitY=1;exitDx=0;exitDy=0;" parent="1" source="7UqYAymLV8VOy74LcbG4-2" target="7UqYAymLV8VOy74LcbG4-52" edge="1">
          <mxGeometry width="100" relative="1" as="geometry">
            <mxPoint x="740" y="970" as="sourcePoint" />
            <mxPoint x="750" y="1070" as="targetPoint" />
          </mxGeometry>
        </mxCell>
        <mxCell id="7UqYAymLV8VOy74LcbG4-55" value="" style="image;html=1;image=img/lib/clip_art/computers/Server_Rack_128x128.png" parent="1" vertex="1">
          <mxGeometry x="750" y="1580" width="80" height="80" as="geometry" />
        </mxCell>
        <mxCell id="7UqYAymLV8VOy74LcbG4-56" value="" style="image;html=1;image=img/lib/clip_art/computers/Server_Rack_128x128.png" parent="1" vertex="1">
          <mxGeometry x="690" y="1580" width="80" height="80" as="geometry" />
        </mxCell>
        <mxCell id="7UqYAymLV8VOy74LcbG4-57" value="" style="shape=link;html=1;rounded=0;entryX=0.5;entryY=0;entryDx=0;entryDy=0;exitX=0.25;exitY=1;exitDx=0;exitDy=0;" parent="1" source="7UqYAymLV8VOy74LcbG4-18" target="7UqYAymLV8VOy74LcbG4-56" edge="1">
          <mxGeometry width="100" relative="1" as="geometry">
            <mxPoint x="720" y="1460" as="sourcePoint" />
            <mxPoint x="740" y="1550" as="targetPoint" />
          </mxGeometry>
        </mxCell>
        <mxCell id="7UqYAymLV8VOy74LcbG4-58" value="" style="shape=link;html=1;rounded=0;entryX=0.5;entryY=0;entryDx=0;entryDy=0;exitX=0.75;exitY=1;exitDx=0;exitDy=0;" parent="1" source="7UqYAymLV8VOy74LcbG4-18" target="7UqYAymLV8VOy74LcbG4-55" edge="1">
          <mxGeometry width="100" relative="1" as="geometry">
            <mxPoint x="740" y="1450" as="sourcePoint" />
            <mxPoint x="700" y="1590" as="targetPoint" />
          </mxGeometry>
        </mxCell>
        <mxCell id="7UqYAymLV8VOy74LcbG4-59" value="" style="shape=link;html=1;rounded=0;entryX=0;entryY=0.5;entryDx=0;entryDy=0;exitX=1;exitY=0.5;exitDx=0;exitDy=0;" parent="1" source="7UqYAymLV8VOy74LcbG4-18" target="7UqYAymLV8VOy74LcbG4-20" edge="1">
          <mxGeometry width="100" relative="1" as="geometry">
            <mxPoint x="800" y="1450" as="sourcePoint" />
            <mxPoint x="800" y="1590" as="targetPoint" />
          </mxGeometry>
        </mxCell>
        <mxCell id="7UqYAymLV8VOy74LcbG4-60" value="" style="shape=link;html=1;rounded=0;entryX=0;entryY=0.5;entryDx=0;entryDy=0;exitX=1;exitY=0.5;exitDx=0;exitDy=0;" parent="1" source="7UqYAymLV8VOy74LcbG4-17" target="7UqYAymLV8VOy74LcbG4-19" edge="1">
          <mxGeometry width="100" relative="1" as="geometry">
            <mxPoint x="830" y="1420" as="sourcePoint" />
            <mxPoint x="950" y="1420" as="targetPoint" />
          </mxGeometry>
        </mxCell>
        <mxCell id="7UqYAymLV8VOy74LcbG4-61" value="" style="shape=link;html=1;rounded=0;entryX=0;entryY=0.5;entryDx=0;entryDy=0;exitX=1;exitY=0.5;exitDx=0;exitDy=0;" parent="1" source="7UqYAymLV8VOy74LcbG4-2" target="7UqYAymLV8VOy74LcbG4-4" edge="1">
          <mxGeometry width="100" relative="1" as="geometry">
            <mxPoint x="870" y="1020" as="sourcePoint" />
            <mxPoint x="960" y="1030" as="targetPoint" />
          </mxGeometry>
        </mxCell>
        <mxCell id="7UqYAymLV8VOy74LcbG4-62" value="" style="shape=link;html=1;rounded=0;entryX=0;entryY=0.5;entryDx=0;entryDy=0;exitX=1;exitY=0.5;exitDx=0;exitDy=0;" parent="1" source="7UqYAymLV8VOy74LcbG4-1" target="7UqYAymLV8VOy74LcbG4-3" edge="1">
          <mxGeometry width="100" relative="1" as="geometry">
            <mxPoint x="830" y="940" as="sourcePoint" />
            <mxPoint x="950" y="940" as="targetPoint" />
          </mxGeometry>
        </mxCell>
        <mxCell id="7UqYAymLV8VOy74LcbG4-63" value="" style="shape=link;html=1;rounded=0;entryX=0;entryY=0.5;entryDx=0;entryDy=0;exitX=1;exitY=0.5;exitDx=0;exitDy=0;" parent="1" source="7UqYAymLV8VOy74LcbG4-35" target="7UqYAymLV8VOy74LcbG4-37" edge="1">
          <mxGeometry width="100" relative="1" as="geometry">
            <mxPoint x="850" y="530" as="sourcePoint" />
            <mxPoint x="970" y="530" as="targetPoint" />
          </mxGeometry>
        </mxCell>
        <mxCell id="7UqYAymLV8VOy74LcbG4-64" value="" style="shape=link;html=1;rounded=0;entryX=0;entryY=0.5;entryDx=0;entryDy=0;exitX=1;exitY=0.5;exitDx=0;exitDy=0;" parent="1" source="7UqYAymLV8VOy74LcbG4-34" target="7UqYAymLV8VOy74LcbG4-36" edge="1">
          <mxGeometry width="100" relative="1" as="geometry">
            <mxPoint x="827" y="280" as="sourcePoint" />
            <mxPoint x="947" y="280" as="targetPoint" />
          </mxGeometry>
        </mxCell>
        <mxCell id="7UqYAymLV8VOy74LcbG4-65" value="" style="shape=link;html=1;rounded=0;entryX=0;entryY=0.5;entryDx=0;entryDy=0;exitX=1;exitY=0.5;exitDx=0;exitDy=0;width=3.333333333333334;" parent="1" source="7UqYAymLV8VOy74LcbG4-41" target="7UqYAymLV8VOy74LcbG4-35" edge="1">
          <mxGeometry width="100" relative="1" as="geometry">
            <mxPoint x="420" y="400" as="sourcePoint" />
            <mxPoint x="540" y="400" as="targetPoint" />
          </mxGeometry>
        </mxCell>
        <mxCell id="7UqYAymLV8VOy74LcbG4-66" value="" style="shape=link;html=1;rounded=0;entryX=0;entryY=0.5;entryDx=0;entryDy=0;exitX=1;exitY=0.5;exitDx=0;exitDy=0;width=3.333333333333334;" parent="1" source="7UqYAymLV8VOy74LcbG4-40" target="7UqYAymLV8VOy74LcbG4-34" edge="1">
          <mxGeometry width="100" relative="1" as="geometry">
            <mxPoint x="410" y="400" as="sourcePoint" />
            <mxPoint x="710" y="400" as="targetPoint" />
          </mxGeometry>
        </mxCell>
        <mxCell id="7UqYAymLV8VOy74LcbG4-67" value="" style="shape=flexArrow;endArrow=classic;startArrow=classic;html=1;rounded=0;entryX=0.5;entryY=1;entryDx=0;entryDy=0;exitX=0.5;exitY=0;exitDx=0;exitDy=0;strokeColor=#96FCFF;fillColor=#A1FFFC;" parent="1" source="7UqYAymLV8VOy74LcbG4-15" target="7UqYAymLV8VOy74LcbG4-14" edge="1">
          <mxGeometry width="100" height="100" relative="1" as="geometry">
            <mxPoint x="420" y="1020" as="sourcePoint" />
            <mxPoint x="520" y="920" as="targetPoint" />
          </mxGeometry>
        </mxCell>
        <mxCell id="7UqYAymLV8VOy74LcbG4-68" value="work工作组链路聚合" style="text;html=1;align=center;verticalAlign=middle;whiteSpace=wrap;rounded=0;" parent="1" vertex="1">
          <mxGeometry x="695" y="130" width="140" height="30" as="geometry" />
        </mxCell>
        <mxCell id="7UqYAymLV8VOy74LcbG4-69" value="ha" style="text;html=1;align=center;verticalAlign=middle;whiteSpace=wrap;rounded=0;" parent="1" vertex="1">
          <mxGeometry x="740" y="40" width="50" height="30" as="geometry" />
        </mxCell>
        <mxCell id="7UqYAymLV8VOy74LcbG4-70" value="" style="endArrow=classic;startArrow=classic;html=1;rounded=0;entryX=0.25;entryY=1;entryDx=0;entryDy=0;exitX=0;exitY=0.25;exitDx=0;exitDy=0;edgeStyle=orthogonalEdgeStyle;strokeColor=#FF0000;" parent="1" source="7UqYAymLV8VOy74LcbG4-35" target="7UqYAymLV8VOy74LcbG4-43" edge="1">
          <mxGeometry width="50" height="50" relative="1" as="geometry">
            <mxPoint x="540" y="150" as="sourcePoint" />
            <mxPoint x="590" y="100" as="targetPoint" />
          </mxGeometry>
        </mxCell>
        <mxCell id="7UqYAymLV8VOy74LcbG4-71" value="" style="endArrow=classic;startArrow=classic;html=1;rounded=0;entryX=0.75;entryY=1;entryDx=0;entryDy=0;exitX=1;exitY=0.25;exitDx=0;exitDy=0;edgeStyle=orthogonalEdgeStyle;strokeColor=#FF0000;" parent="1" source="7UqYAymLV8VOy74LcbG4-35" target="7UqYAymLV8VOy74LcbG4-44" edge="1">
          <mxGeometry width="50" height="50" relative="1" as="geometry">
            <mxPoint x="710" y="385" as="sourcePoint" />
            <mxPoint x="640" y="110" as="targetPoint" />
          </mxGeometry>
        </mxCell>
        <mxCell id="7UqYAymLV8VOy74LcbG4-72" value="" style="endArrow=classic;startArrow=classic;html=1;rounded=0;entryX=0.401;entryY=0.97;entryDx=0;entryDy=0;exitX=1;exitY=0.25;exitDx=0;exitDy=0;edgeStyle=orthogonalEdgeStyle;strokeColor=#FF0000;entryPerimeter=0;" parent="1" source="7UqYAymLV8VOy74LcbG4-34" target="7UqYAymLV8VOy74LcbG4-44" edge="1">
          <mxGeometry width="50" height="50" relative="1" as="geometry">
            <mxPoint x="830" y="385" as="sourcePoint" />
            <mxPoint x="910" y="110" as="targetPoint" />
          </mxGeometry>
        </mxCell>
        <mxCell id="7UqYAymLV8VOy74LcbG4-73" value="" style="endArrow=classic;startArrow=classic;html=1;rounded=0;entryX=0.5;entryY=1;entryDx=0;entryDy=0;exitX=0;exitY=0.25;exitDx=0;exitDy=0;edgeStyle=orthogonalEdgeStyle;strokeColor=#FF0000;" parent="1" source="7UqYAymLV8VOy74LcbG4-34" target="7UqYAymLV8VOy74LcbG4-43" edge="1">
          <mxGeometry width="50" height="50" relative="1" as="geometry">
            <mxPoint x="830" y="205" as="sourcePoint" />
            <mxPoint x="850" y="110" as="targetPoint" />
          </mxGeometry>
        </mxCell>
        <mxCell id="7UqYAymLV8VOy74LcbG4-74" value="1.1" style="text;html=1;align=center;verticalAlign=middle;resizable=0;points=[];autosize=1;strokeColor=none;fillColor=none;" parent="1" vertex="1">
          <mxGeometry x="590" y="100" width="40" height="30" as="geometry" />
        </mxCell>
        <mxCell id="7UqYAymLV8VOy74LcbG4-75" value="1.3" style="text;html=1;align=center;verticalAlign=middle;resizable=0;points=[];autosize=1;strokeColor=none;fillColor=none;" parent="1" vertex="1">
          <mxGeometry x="660" y="100" width="40" height="30" as="geometry" />
        </mxCell>
        <mxCell id="7UqYAymLV8VOy74LcbG4-76" value="1.1" style="text;html=1;align=center;verticalAlign=middle;resizable=0;points=[];autosize=1;strokeColor=none;fillColor=none;" parent="1" vertex="1">
          <mxGeometry x="820" y="100" width="40" height="30" as="geometry" />
        </mxCell>
        <mxCell id="7UqYAymLV8VOy74LcbG4-77" value="1.3" style="text;html=1;align=center;verticalAlign=middle;resizable=0;points=[];autosize=1;strokeColor=none;fillColor=none;" parent="1" vertex="1">
          <mxGeometry x="890" y="100" width="40" height="30" as="geometry" />
        </mxCell>
        <mxCell id="7UqYAymLV8VOy74LcbG4-78" value="&lt;u&gt;ha 配置同步&lt;/u&gt;" style="text;html=1;align=center;verticalAlign=middle;resizable=0;points=[];autosize=1;strokeColor=none;fillColor=none;" parent="1" vertex="1">
          <mxGeometry x="560" y="820" width="90" height="30" as="geometry" />
        </mxCell>
        <mxCell id="NFsT6qwoTG61FISI_Y1c-1" value="HA 站点高可用" style="text;html=1;align=center;verticalAlign=middle;resizable=0;points=[];autosize=1;strokeColor=none;fillColor=none;" parent="1" vertex="1">
          <mxGeometry x="710" y="100" width="100" height="30" as="geometry" />
        </mxCell>
        <mxCell id="NFsT6qwoTG61FISI_Y1c-8" value="&lt;u&gt;ha 配置同步&lt;/u&gt;" style="text;html=1;align=center;verticalAlign=middle;resizable=0;points=[];autosize=1;strokeColor=none;fillColor=none;" parent="1" vertex="1">
          <mxGeometry x="560" y="1300" width="90" height="30" as="geometry" />
        </mxCell>
        <mxCell id="NFsT6qwoTG61FISI_Y1c-10" value="" style="ellipse;whiteSpace=wrap;html=1;fillColor=none;" parent="1" vertex="1">
          <mxGeometry x="590" y="130" width="110" height="20" as="geometry" />
        </mxCell>
        <mxCell id="NFsT6qwoTG61FISI_Y1c-11" value="" style="ellipse;whiteSpace=wrap;html=1;fillColor=none;" parent="1" vertex="1">
          <mxGeometry x="827" y="130" width="110" height="20" as="geometry" />
        </mxCell>
        <mxCell id="NFsT6qwoTG61FISI_Y1c-13" value="LACP 2 层" style="text;html=1;align=center;verticalAlign=middle;resizable=0;points=[];autosize=1;strokeColor=none;fillColor=none;" parent="1" vertex="1">
          <mxGeometry x="950" y="120" width="80" height="30" as="geometry" />
        </mxCell>
        <mxCell id="NFsT6qwoTG61FISI_Y1c-32" value="" style="ellipse;whiteSpace=wrap;html=1;fillColor=none;rotation=-90;" parent="1" vertex="1">
          <mxGeometry x="530" y="200" width="50" height="20" as="geometry" />
        </mxCell>
        <mxCell id="NFsT6qwoTG61FISI_Y1c-36" value="" style="ellipse;whiteSpace=wrap;html=1;fillColor=none;rotation=-90;" parent="1" vertex="1">
          <mxGeometry x="530" y="385" width="50" height="20" as="geometry" />
        </mxCell>
        <mxCell id="NFsT6qwoTG61FISI_Y1c-40" value="" style="ellipse;whiteSpace=wrap;html=1;fillColor=none;rotation=-90;" parent="1" vertex="1">
          <mxGeometry x="890" y="375" width="50" height="20" as="geometry" />
        </mxCell>
        <mxCell id="NFsT6qwoTG61FISI_Y1c-41" value="" style="ellipse;whiteSpace=wrap;html=1;fillColor=none;rotation=-90;" parent="1" vertex="1">
          <mxGeometry x="890" y="200" width="50" height="20" as="geometry" />
        </mxCell>
        <mxCell id="VGjhNlyuUQdaRWMsl0uN-1" value="" style="shape=flexArrow;endArrow=classic;startArrow=classic;html=1;rounded=0;entryX=0.5;entryY=1;entryDx=0;entryDy=0;exitX=0.5;exitY=0;exitDx=0;exitDy=0;" edge="1" parent="1">
          <mxGeometry width="100" height="100" relative="1" as="geometry">
            <mxPoint x="999" y="360" as="sourcePoint" />
            <mxPoint x="999" y="240" as="targetPoint" />
          </mxGeometry>
        </mxCell>
        <mxCell id="VGjhNlyuUQdaRWMsl0uN-3" value="" style="shape=flexArrow;endArrow=classic;startArrow=classic;html=1;rounded=0;entryX=0.5;entryY=1;entryDx=0;entryDy=0;exitX=0.5;exitY=0;exitDx=0;exitDy=0;" edge="1" parent="1">
          <mxGeometry width="100" height="100" relative="1" as="geometry">
            <mxPoint x="999" y="900" as="sourcePoint" />
            <mxPoint x="999" y="780" as="targetPoint" />
          </mxGeometry>
        </mxCell>
        <mxCell id="VGjhNlyuUQdaRWMsl0uN-4" value="" style="shape=flexArrow;endArrow=classic;startArrow=classic;html=1;rounded=0;entryX=0.5;entryY=1;entryDx=0;entryDy=0;exitX=0.5;exitY=0;exitDx=0;exitDy=0;" edge="1" parent="1">
          <mxGeometry width="100" height="100" relative="1" as="geometry">
            <mxPoint x="999" y="1380" as="sourcePoint" />
            <mxPoint x="999" y="1260" as="targetPoint" />
          </mxGeometry>
        </mxCell>
        <mxCell id="VGjhNlyuUQdaRWMsl0uN-5" value="心跳同步" style="text;html=1;align=center;verticalAlign=middle;resizable=0;points=[];autosize=1;strokeColor=none;fillColor=none;" vertex="1" parent="1">
          <mxGeometry x="1010" y="820" width="70" height="30" as="geometry" />
        </mxCell>
        <mxCell id="VGjhNlyuUQdaRWMsl0uN-6" value="心跳同步" style="text;html=1;align=center;verticalAlign=middle;resizable=0;points=[];autosize=1;strokeColor=none;fillColor=none;" vertex="1" parent="1">
          <mxGeometry x="1000" y="290" width="70" height="30" as="geometry" />
        </mxCell>
        <mxCell id="VGjhNlyuUQdaRWMsl0uN-8" value="心跳同步" style="text;html=1;align=center;verticalAlign=middle;resizable=0;points=[];autosize=1;strokeColor=none;fillColor=none;" vertex="1" parent="1">
          <mxGeometry x="1010" y="1310" width="70" height="30" as="geometry" />
        </mxCell>
      </root>
    </mxGraphModel>
  </diagram>
</mxfile>
